<svg width="24" height="24" viewBox="0 0 24 24" fill="none" xmlns="http://www.w3.org/2000/svg">
<path d="M18.8312 11.3009L9.92103 20.7997C9.82661 20.9 9.70197 20.967 9.56593 20.9906C9.42989 21.0142 9.28982 20.9931 9.16687 20.9306C9.04392 20.868 8.94475 20.7674 8.88433 20.6438C8.82391 20.5203 8.80552 20.3805 8.83193 20.2456L9.9982 14.4411L5.41346 12.7281C5.315 12.6915 5.22719 12.6311 5.15789 12.5525C5.08858 12.4738 5.03994 12.3793 5.0163 12.2774C4.99266 12.1755 4.99476 12.0693 5.02242 11.9684C5.05008 11.8675 5.10243 11.775 5.1748 11.6991L14.0849 2.20026C14.1793 2.1 14.304 2.03301 14.44 2.00941C14.5761 1.98581 14.7161 2.00688 14.8391 2.06943C14.962 2.13199 15.0612 2.23263 15.1216 2.35619C15.182 2.47974 15.2004 2.61949 15.174 2.75436L14.0046 8.56526L18.5893 10.2758C18.687 10.3127 18.7741 10.373 18.8429 10.4514C18.9117 10.5297 18.96 10.6237 18.9836 10.725C19.0072 10.8263 19.0053 10.9319 18.9782 11.0323C18.951 11.1328 18.8994 11.225 18.828 11.3009H18.8312Z" fill="#262626"/>
</svg>
