<svg width="9" height="19" viewBox="0 0 9 19" fill="none" xmlns="http://www.w3.org/2000/svg">
<path d="M4.73734 3.7V0.699999H6.01734V3.7H4.73734ZM2.05734 3.7V0.699999H3.33734V3.7H2.05734ZM4.73734 18.96V15.96H6.01734V18.96H4.73734ZM2.05734 18.96V15.96H3.33734V18.96H2.05734ZM0.217344 17V2.72H3.49734C4.61734 2.72 5.55068 2.83333 6.29734 3.06C7.05734 3.28667 7.62401 3.66 7.99734 4.18C8.38401 4.7 8.57734 5.39333 8.57734 6.26C8.57734 6.82 8.48401 7.32 8.29734 7.76C8.12401 8.18667 7.85734 8.54667 7.49734 8.84C7.15068 9.12 6.71734 9.31333 6.19734 9.42V9.52C6.73068 9.61333 7.20401 9.78667 7.61734 10.04C8.04401 10.2933 8.37734 10.6533 8.61734 11.12C8.87068 11.5867 8.99734 12.1933 8.99734 12.94C8.99734 13.8067 8.81068 14.5467 8.43734 15.16C8.07734 15.76 7.55734 16.22 6.87734 16.54C6.19734 16.8467 5.38401 17 4.43734 17H0.217344ZM3.85734 8.8C4.95068 8.8 5.69734 8.60667 6.09734 8.22C6.51068 7.82 6.71734 7.23333 6.71734 6.46C6.71734 5.67333 6.46401 5.11333 5.95734 4.78C5.46401 4.43333 4.67068 4.26 3.57734 4.26H2.01734V8.8H3.85734ZM2.01734 10.3V15.48H4.09734C5.20401 15.48 5.97734 15.2333 6.41734 14.74C6.85734 14.2467 7.07734 13.6 7.07734 12.8C7.07734 12.2933 6.97734 11.8533 6.77734 11.48C6.59068 11.1067 6.27068 10.82 5.81734 10.62C5.36401 10.4067 4.74401 10.3 3.95734 10.3H2.01734Z" fill="black"/>
</svg>
