<svg width="10" height="20" viewBox="0 0 10 20" fill="none" xmlns="http://www.w3.org/2000/svg">
<path d="M6.07422 0.515625V3.41602H4.56055V0.515625H6.07422ZM5.88867 16.4629V19.0801H4.38477V16.4629H5.88867ZM7.1582 13.2793C7.1582 12.9082 7.08659 12.5859 6.94336 12.3125C6.80664 12.0391 6.57552 11.7949 6.25 11.5801C5.93099 11.3652 5.5013 11.1602 4.96094 10.9648C4.12109 10.6589 3.38542 10.3236 2.75391 9.95898C2.1224 9.58789 1.63086 9.12891 1.2793 8.58203C0.934245 8.03516 0.761719 7.34505 0.761719 6.51172C0.761719 5.71094 0.947266 5.01758 1.31836 4.43164C1.69596 3.83919 2.22005 3.38346 2.89062 3.06445C3.5612 2.73893 4.33919 2.57617 5.22461 2.57617C5.91471 2.57617 6.5332 2.68034 7.08008 2.88867C7.63346 3.09049 8.10547 3.38672 8.49609 3.77734C8.89323 4.16797 9.19596 4.64974 9.4043 5.22266C9.61914 5.78906 9.72656 6.43685 9.72656 7.16602H7.14844C7.14844 6.76237 7.10286 6.4043 7.01172 6.0918C6.92057 5.7793 6.79036 5.51562 6.62109 5.30078C6.45182 5.07943 6.24674 4.91341 6.00586 4.80273C5.77148 4.69206 5.50456 4.63672 5.20508 4.63672C4.77539 4.63672 4.42057 4.7181 4.14062 4.88086C3.86719 5.04362 3.66536 5.26497 3.53516 5.54492C3.41146 5.82487 3.34961 6.14714 3.34961 6.51172C3.34961 6.86328 3.41471 7.17253 3.54492 7.43945C3.68164 7.69987 3.90951 7.9375 4.22852 8.15234C4.55404 8.36719 5 8.58529 5.56641 8.80664C6.41276 9.11914 7.14844 9.46419 7.77344 9.8418C8.39844 10.2129 8.88346 10.6686 9.22852 11.209C9.57357 11.7493 9.74609 12.4329 9.74609 13.2598C9.74609 14.1061 9.55078 14.8223 9.16016 15.4082C8.77604 15.9941 8.23568 16.4401 7.53906 16.7461C6.84245 17.0521 6.0319 17.2051 5.10742 17.2051C4.51497 17.2051 3.92904 17.127 3.34961 16.9707C2.77018 16.8145 2.24284 16.5605 1.76758 16.209C1.29883 15.8509 0.924479 15.3789 0.644531 14.793C0.364583 14.2005 0.224609 13.4746 0.224609 12.6152H2.8125C2.8125 13.11 2.8776 13.5202 3.00781 13.8457C3.13802 14.1712 3.3138 14.4316 3.53516 14.627C3.75651 14.8158 4.00391 14.9492 4.27734 15.0273C4.55078 15.1055 4.82747 15.1445 5.10742 15.1445C5.56315 15.1445 5.94076 15.0664 6.24023 14.9102C6.54622 14.7539 6.77409 14.5358 6.92383 14.2559C7.08008 13.9694 7.1582 13.6439 7.1582 13.2793Z" fill="black"/>
</svg>
