<svg width="10" height="16" viewBox="0 0 10 16" fill="none" xmlns="http://www.w3.org/2000/svg">
<path d="M7.55859 13.2617C7.91016 13.2617 8.25195 13.2357 8.58398 13.1836C8.91602 13.1315 9.23177 13.0534 9.53125 12.9492L9.81445 14.9023C9.43685 14.9935 9.04297 15.0651 8.63281 15.1172C8.22266 15.1693 7.80599 15.1953 7.38281 15.1953C6.58203 15.1953 5.84635 15.0781 5.17578 14.8438C4.51172 14.6094 3.93555 14.2611 3.44727 13.7988C2.95898 13.3301 2.57812 12.7507 2.30469 12.0605C2.03776 11.3639 1.9043 10.5534 1.9043 9.62891V6.31836C1.9043 5.36784 2.03776 4.53776 2.30469 3.82812C2.57812 3.11198 2.96224 2.51302 3.45703 2.03125C3.95833 1.54948 4.54753 1.18815 5.22461 0.947266C5.9082 0.70638 6.66341 0.585938 7.49023 0.585938C7.89388 0.585938 8.28451 0.615234 8.66211 0.673828C9.04622 0.725911 9.43034 0.797526 9.81445 0.888672L9.53125 2.85156C9.24479 2.75391 8.93229 2.67578 8.59375 2.61719C8.26172 2.55859 7.92643 2.5293 7.58789 2.5293C7.08659 2.5293 6.63411 2.60417 6.23047 2.75391C5.83333 2.90365 5.49479 3.13151 5.21484 3.4375C4.9349 3.73698 4.72005 4.12435 4.57031 4.59961C4.42708 5.07487 4.35547 5.64128 4.35547 6.29883V9.62891C4.35547 10.2799 4.43034 10.8366 4.58008 11.2988C4.73633 11.7546 4.95443 12.1289 5.23438 12.4219C5.51432 12.7083 5.84961 12.9199 6.24023 13.0566C6.63737 13.1934 7.07682 13.2617 7.55859 13.2617ZM7.85156 5.86914V7.20703H0.214844V5.86914H7.85156ZM7.85156 8.48633V9.82422H0.214844V8.48633H7.85156Z" fill="black"/>
</svg>
