<svg width="18" height="18" viewBox="0 0 18 18" fill="none" xmlns="http://www.w3.org/2000/svg">
<path d="M6.72554 14.2553C8.33807 14.4401 9.96037 14.0418 11.3012 13.1377L15.0802 16.9166C15.0802 16.9166 15.0802 16.9167 15.0802 16.9167C15.324 17.1606 15.6546 17.2976 15.9994 17.2978C16.3442 17.2979 16.6749 17.161 16.9189 16.9173C17.1628 16.6735 17.2999 16.3429 17.3 15.998C17.3001 15.6532 17.1633 15.3225 16.9195 15.0786L16.9194 15.0785L13.1395 11.2985C14.0433 9.95678 14.4408 8.33365 14.2547 6.72071C14.0584 5.01832 13.2265 3.45284 11.9255 2.33746C10.6245 1.22208 8.95035 0.639064 7.23795 0.705046C5.52555 0.771028 3.9012 1.48114 2.68989 2.69333C1.47857 3.90551 0.769617 5.53036 0.704861 7.24281C0.640104 8.95526 1.22432 10.629 2.34063 11.9292C3.45694 13.2294 5.02302 14.0602 6.72554 14.2553ZM12.7004 7.4979C12.7004 8.18075 12.566 8.85691 12.3046 9.48778C12.0433 10.1186 11.6603 10.6919 11.1775 11.1747C10.6946 11.6576 10.1214 12.0406 9.49053 12.3019C8.85966 12.5632 8.1835 12.6977 7.50065 12.6977C6.81781 12.6977 6.14165 12.5632 5.51078 12.3019C4.87991 12.0406 4.30669 11.6576 3.82384 11.1747C3.341 10.6919 2.95799 10.1186 2.69667 9.48778C2.43536 8.85691 2.30086 8.18075 2.30086 7.4979C2.30086 6.11883 2.84869 4.79625 3.82384 3.82109C4.79899 2.84594 6.12158 2.29811 7.50065 2.29811C8.87972 2.29811 10.2023 2.84594 11.1775 3.82109C12.1526 4.79625 12.7004 6.11883 12.7004 7.4979Z" fill="white" stroke="white" stroke-width="0.6"/>
</svg>
